<svg xmlns="http://www.w3.org/2000/svg" viewBox="0 0 24 24" width="24" height="24" fill="none">
  <!-- Borda branca envolta do ícone -->
  <rect x="1" y="1" width="22" height="22" rx="5" fill="none" stroke="#ffffff" stroke-width="1.5"/>
  <!-- Chapéu de Mago -->
  <!-- Aba do chapéu -->
  <ellipse cx="12" cy="18" rx="7.5" ry="2" fill="#ffffff"/>
  <!-- Corpo cônico com dobra no topo -->
  <path d="M6.5 17.5 C 7.5 13, 9 9, 11 6 C 12 4.5, 14 3.5, 15.5 4 C 16.5 4.5, 16 6, 14.5 6.5 C 13.5 7, 13 8, 13.5 9 C 14.5 11.5, 16 14.5, 17.5 17.5 Z" fill="#ffffff"/>
  <!-- Faixa do chapéu -->
  <path d="M7.2 16 C 9 15.2, 15 15.2, 16.8 16 L 17.2 17.5 C 15 16.8, 9 16.8, 6.8 17.5 Z" fill="#1b2838"/>
  <!-- Estrela mágica no topo -->
  <polygon points="18,7 18.8,8.8 20.8,9 19.3,10.3 19.8,12.2 18,11.2 16.2,12.2 16.7,10.3 15.2,9 17.2,8.8" fill="#ffffff"/>
</svg>
